<?xml version="1.0" standalone="no"?>
<!DOCTYPE svg PUBLIC "-//W3C//DTD SVG 20010904//EN"
 "http://www.w3.org/TR/2001/REC-SVG-20010904/DTD/svg10.dtd">
<svg version="1.0" xmlns="http://www.w3.org/2000/svg"
 width="3676.000000pt" height="935.000000pt" viewBox="0 0 3676.000000 935.000000"
 preserveAspectRatio="xMidYMid meet">

<g transform="translate(0.000000,935.000000) scale(0.100000,-0.100000)"
fill="#000000" stroke="none">
<path d="M24250 9138 c-44 -46 -70 -89 -97 -165 -26 -71 -25 -307 1 -383 31
-94 84 -178 158 -251 l71 -69 -7 -53 -7 -52 30 33 c16 17 33 32 37 32 3 0 40
-16 81 -35 41 -19 80 -35 87 -35 7 0 16 -4 22 -9 10 -9 77 -31 179 -58 107
-28 436 -25 556 5 106 26 196 59 272 101 245 133 425 391 386 555 -27 119
-102 179 -258 206 -118 22 -410 -10 -519 -56 -18 -8 -38 -14 -46 -14 -38 0
-264 -112 -361 -179 -99 -68 -279 -237 -371 -349 -42 -50 -73 -44 -144 26
-159 159 -205 425 -113 647 18 41 66 111 93 132 9 7 10 12 4 13 -7 0 -31 -19
-54 -42z m1580 -226 c66 -19 134 -78 151 -129 14 -44 5 -116 -21 -169 -42 -86
-188 -230 -299 -297 -68 -40 -196 -93 -249 -103 -20 -4 -44 -10 -53 -15 -8 -4
-92 -15 -187 -24 -160 -16 -180 -16 -304 0 -73 9 -146 20 -163 25 -159 47
-245 81 -245 98 0 22 74 115 155 197 131 131 281 228 505 328 223 98 543 139
710 89z"/>
<path d="M12531 9143 c22 -27 55 -91 81 -158 20 -52 23 -78 23 -190 0 -131 -1
-138 -48 -245 -20 -48 -87 -142 -121 -174 -70 -62 -97 -58 -159 22 -99 128
-267 272 -442 379 -63 38 -200 98 -280 123 -152 46 -280 70 -375 69 -61 -1
-51 -5 65 -28 206 -42 266 -59 420 -120 165 -66 329 -177 485 -329 164 -158
182 -195 113 -224 -240 -101 -599 -127 -863 -62 -192 47 -358 141 -478 269
-93 99 -142 193 -142 271 0 42 -3 55 -10 44 -16 -25 -12 -141 8 -190 32 -83
84 -161 153 -230 145 -145 308 -228 544 -276 111 -22 370 -26 460 -6 97 22
237 68 311 103 79 38 101 39 126 7 17 -23 18 -23 18 29 0 47 3 54 34 78 64 49
151 171 183 260 20 54 43 171 43 220 0 65 -28 192 -55 248 -24 51 -84 127
-100 127 -4 0 -2 -8 6 -17z"/>
<path d="M11020 8960 c-8 -5 -27 -10 -42 -10 -15 0 -33 -7 -42 -15 -8 -8 -20
-15 -26 -15 -16 0 -90 -74 -90 -90 0 -7 17 5 38 27 37 40 95 73 128 73 10 0
31 4 48 10 17 5 49 14 71 19 l40 9 -55 1 c-30 0 -62 -4 -70 -9z"/>
<path d="M8768 8873 c7 -3 16 -2 19 1 4 3 -2 6 -13 5 -11 0 -14 -3 -6 -6z"/>
<path d="M9098 8873 c17 -2 47 -2 65 0 17 2 3 4 -33 4 -36 0 -50 -2 -32 -4z"/>
<path d="M20285 8873 c-22 -2 -44 -8 -50 -13 -5 -4 -26 -11 -45 -15 -19 -4
-41 -11 -50 -15 -8 -5 -30 -14 -47 -20 -18 -7 -33 -16 -33 -21 0 -5 -6 -9 -13
-9 -25 0 -95 -84 -102 -123 -4 -20 -11 -40 -16 -43 -12 -7 -11 -51 1 -59 6 -3
10 -16 10 -28 0 -23 93 -117 115 -117 7 0 15 -4 17 -8 4 -11 129 -52 159 -52
14 0 31 -6 38 -12 16 -17 379 -17 413 -1 13 6 52 16 88 22 36 6 77 14 93 17
15 4 27 2 27 -3 0 -4 -49 -58 -110 -118 -60 -60 -110 -114 -110 -119 0 -4 -59
-71 -132 -148 -73 -77 -137 -150 -143 -161 -10 -20 -19 -22 -123 -25 -134 -3
-153 -22 -22 -22 50 0 90 -3 90 -8 0 -10 -153 -162 -163 -162 -4 0 -36 -24
-71 -52 -79 -66 -138 -100 -246 -143 -25 -9 -56 -22 -69 -29 -14 -6 -76 -11
-145 -11 -112 0 -126 2 -181 28 -51 24 -155 109 -155 127 0 3 70 3 157 2 169
-4 292 9 351 37 20 10 60 28 87 41 63 30 216 180 239 235 10 22 24 54 33 71
19 41 23 198 6 215 -7 7 -13 20 -13 29 0 28 -100 118 -149 136 -26 9 -54 20
-63 25 -29 15 -194 11 -251 -7 -48 -15 -163 -67 -212 -97 -34 -20 -133 -113
-181 -170 -37 -44 -85 -153 -91 -207 -3 -30 -10 -61 -16 -68 -7 -9 -7 -20 1
-35 13 -27 23 -137 13 -137 -5 0 -20 9 -34 20 -14 11 -29 20 -34 20 -11 0 -73
63 -73 74 0 4 -12 23 -26 42 -24 31 -27 43 -27 119 0 74 4 92 31 148 30 61
145 187 171 187 6 0 11 9 11 20 0 25 -2 25 -48 -4 -82 -53 -182 -182 -182
-236 0 -11 -4 -20 -10 -20 -12 0 -14 -167 -1 -174 4 -3 11 -19 14 -36 4 -17
12 -38 19 -47 25 -32 110 -113 120 -113 5 0 24 -10 41 -23 18 -12 41 -27 52
-33 11 -6 25 -20 30 -31 29 -56 147 -148 206 -160 16 -3 32 -10 35 -14 3 -5
16 -9 29 -9 13 0 27 -4 30 -10 8 -13 265 -14 265 -1 0 5 17 11 38 14 67 9 165
43 247 86 131 69 110 52 300 235 l131 126 102 0 c56 0 102 -3 102 -7 0 -3 -12
-22 -27 -42 -16 -20 -35 -48 -43 -63 -8 -16 -30 -56 -49 -90 -30 -55 -35 -74
-39 -149 -4 -81 -3 -87 19 -103 26 -18 60 -21 87 -7 9 4 37 18 62 30 25 12 59
30 75 41 17 11 37 23 46 26 9 3 26 19 38 35 26 35 41 37 41 5 0 -34 18 -77 42
-103 17 -18 32 -23 73 -23 28 0 55 4 61 9 5 5 25 14 45 20 21 7 73 46 125 95
l89 83 83 6 c87 7 96 2 67 -37 -8 -11 -15 -32 -15 -47 0 -15 -6 -29 -12 -32
-10 -4 -10 -7 0 -18 6 -7 12 -20 12 -29 0 -31 34 -50 86 -50 28 0 54 4 60 8 5
5 25 15 44 22 19 7 61 35 92 62 31 26 60 48 65 48 5 0 33 25 63 56 121 123
268 253 293 259 24 6 27 4 27 -18 0 -13 -9 -36 -20 -50 -11 -14 -20 -28 -20
-32 0 -3 -13 -18 -30 -32 -16 -13 -30 -30 -30 -37 0 -7 -18 -30 -40 -51 -22
-21 -40 -42 -40 -47 0 -4 -10 -18 -22 -31 -38 -40 -108 -125 -108 -131 0 -3
22 -6 49 -6 48 0 50 1 115 74 36 41 66 78 66 82 0 12 202 214 215 214 5 1 26
14 45 30 20 18 46 30 62 30 31 0 37 -20 13 -40 -8 -7 -15 -18 -15 -24 0 -6
-26 -41 -58 -78 -116 -136 -151 -202 -132 -252 12 -33 73 -63 102 -49 13 6 39
17 58 24 19 8 63 37 97 66 38 32 65 48 69 42 3 -6 1 -16 -5 -22 -19 -19 -12
-63 15 -91 45 -44 93 -35 207 40 28 19 60 34 70 34 15 0 12 -7 -17 -42 -20
-23 -36 -45 -36 -50 0 -4 20 -8 44 -8 41 0 48 4 90 54 25 29 46 57 46 62 1 5
27 38 59 74 58 63 59 64 79 47 19 -17 21 -17 66 4 25 12 49 25 52 30 3 5 9 9
15 9 19 0 8 -29 -29 -76 -48 -62 -82 -131 -75 -153 14 -37 36 -51 84 -51 26 0
51 5 54 10 3 6 13 10 20 10 17 0 85 42 144 90 62 50 221 208 221 220 0 21 -18
8 -90 -65 -41 -41 -78 -75 -83 -75 -5 0 -36 -25 -69 -55 -71 -63 -126 -95
-169 -95 -36 0 -48 23 -25 49 9 10 16 21 16 25 0 5 12 25 28 45 57 75 65 110
35 143 -15 17 -15 19 2 38 10 11 22 20 27 20 5 0 28 15 51 34 49 39 99 66 123
66 13 0 14 -3 4 -15 -17 -21 -5 -45 24 -45 14 0 30 10 40 25 16 25 16 27 -6
45 -13 11 -36 19 -52 20 -35 0 -125 -41 -150 -69 -11 -12 -24 -21 -30 -21 -5
0 -25 -14 -43 -32 -28 -27 -40 -32 -88 -32 -58 -1 -65 3 -40 24 8 7 15 18 15
24 0 19 96 114 132 131 18 8 53 28 78 45 25 16 54 34 65 40 23 11 67 39 150
94 84 56 230 200 281 277 50 75 59 133 26 162 -20 19 -77 23 -87 7 -3 -5 -15
-10 -25 -10 -11 0 -35 -13 -53 -30 -19 -16 -40 -30 -46 -30 -14 0 -301 -289
-301 -303 0 -5 -40 -53 -90 -107 -49 -54 -90 -101 -90 -105 0 -4 -34 -44 -75
-90 -41 -45 -75 -86 -75 -91 0 -12 -142 -154 -154 -154 -4 0 -38 -27 -75 -60
-37 -33 -71 -60 -75 -60 -5 0 -25 -13 -45 -29 -46 -36 -85 -46 -101 -26 -16
20 5 65 60 127 22 25 40 49 40 53 0 3 26 37 58 75 89 108 136 167 140 179 2 7
-17 11 -52 11 -51 0 -57 -2 -66 -25 -5 -14 -85 -101 -177 -194 -133 -133 -181
-175 -231 -200 -34 -17 -67 -29 -72 -26 -15 10 -12 61 5 75 8 7 15 17 15 23 0
6 27 41 60 78 33 37 60 70 60 74 0 4 14 25 32 47 24 31 31 50 31 82 0 57 -7
66 -56 66 -46 0 -85 -17 -159 -68 -26 -17 -49 -32 -52 -32 -3 0 -6 20 -6 43 0
49 -22 77 -58 77 -31 0 -118 -59 -177 -119 -27 -28 -55 -51 -62 -51 -7 0 -19
-13 -27 -28 -14 -28 -72 -83 -136 -132 -18 -14 -47 -37 -65 -52 -18 -16 -37
-28 -43 -28 -6 0 -15 -6 -19 -12 -18 -29 -84 -53 -130 -49 -16 1 -17 34 -3 61
6 11 15 29 20 40 21 41 36 66 61 100 14 19 28 40 30 45 6 16 68 99 124 168 50
60 83 82 275 179 14 7 46 29 71 50 25 21 50 38 56 38 23 0 240 225 261 270 30
67 34 85 22 115 -10 26 -13 27 -64 23 -31 -3 -66 -13 -81 -24 -16 -10 -35 -23
-44 -29 -20 -13 -100 -73 -126 -97 -81 -70 -175 -163 -175 -172 0 -5 -25 -34
-55 -63 -30 -29 -55 -57 -55 -61 0 -5 -16 -23 -35 -42 -19 -19 -35 -38 -35
-42 0 -5 -11 -21 -24 -36 -13 -15 -44 -52 -69 -82 -26 -30 -56 -64 -67 -76
-11 -12 -20 -26 -20 -31 0 -18 -77 -82 -122 -102 -56 -25 -118 -34 -118 -17 0
7 14 39 30 71 32 63 37 97 18 136 -27 58 -100 63 -197 14 -96 -48 -163 -96
-215 -153 -45 -51 -166 -168 -198 -193 -33 -26 -84 -52 -124 -63 -28 -8 -62
17 -48 35 6 8 14 27 18 43 4 17 17 44 29 60 26 37 54 84 63 109 3 9 10 17 14
17 4 0 17 15 29 33 11 17 26 41 33 52 23 34 96 129 117 151 12 12 21 25 21 29
0 19 397 435 416 435 5 0 38 28 72 63 65 65 82 105 40 91 -30 -9 -93 -48 -143
-89 -22 -17 -45 -34 -52 -36 -35 -12 -433 -381 -433 -402 0 -5 -37 -49 -82
-98 l-81 -90 -95 3 c-60 2 -97 7 -99 14 -4 11 35 61 103 136 13 14 24 30 24
34 0 7 66 85 120 141 16 17 30 35 30 40 0 4 70 78 155 163 85 85 155 160 155
167 0 18 -32 16 -72 -4 -59 -30 -68 -33 -80 -33 -7 0 -25 -6 -40 -14 -14 -8
-45 -17 -67 -21 -23 -4 -43 -10 -46 -15 -3 -4 -33 -11 -67 -15 -35 -4 -69 -12
-76 -18 -18 -14 -352 -21 -432 -9 -97 16 -160 32 -160 43 0 5 -11 9 -25 9 -29
0 -108 68 -131 111 -29 57 -8 144 48 196 30 29 137 83 164 83 11 0 24 4 30 9
8 9 51 15 248 38 26 3 58 0 70 -5 11 -6 68 -13 125 -16 56 -3 108 -9 115 -14
6 -5 33 -12 60 -16 27 -3 54 -10 60 -15 6 -5 27 -12 46 -16 19 -4 41 -11 50
-15 8 -4 63 -30 122 -58 61 -29 110 -47 113 -42 11 18 -4 29 -103 76 -141 67
-154 73 -187 80 -16 4 -34 10 -40 14 -5 4 -32 11 -60 15 -27 4 -56 12 -63 17
-13 11 -411 20 -487 11z m3699 -439 c9 -8 16 -17 16 -18 0 -2 -13 -30 -30 -62
-29 -58 -165 -208 -219 -242 -14 -9 -44 -31 -67 -49 -23 -18 -44 -33 -49 -33
-4 0 -24 -13 -45 -30 -21 -16 -41 -30 -44 -30 -3 0 -31 -16 -62 -36 -30 -20
-58 -34 -60 -31 -8 7 20 51 66 108 25 29 59 72 75 94 38 51 228 248 278 287
33 26 94 56 119 58 4 0 14 -7 22 -16z m-1477 -55 c-3 -21 -11 -45 -18 -55 -24
-30 -224 -228 -256 -252 -57 -44 -148 -102 -160 -102 -7 0 -16 -6 -20 -12 -10
-15 -66 -48 -83 -48 -19 0 -1 41 44 98 152 196 319 359 411 402 72 34 90 27
82 -31z m-2543 -98 c6 -5 25 -12 42 -15 44 -10 102 -61 127 -115 17 -35 22
-64 22 -126 0 -71 -4 -88 -34 -149 -34 -70 -125 -171 -179 -199 -15 -7 -43
-23 -62 -34 -40 -22 -160 -63 -188 -63 -10 0 -23 -5 -29 -11 -16 -16 -310 -16
-326 0 -6 6 -20 11 -32 11 -27 0 -45 18 -45 46 0 13 -4 26 -10 29 -5 3 -10 42
-10 85 0 43 5 82 10 85 6 3 10 15 10 27 0 24 24 81 61 148 21 39 139 159 183
187 65 42 124 71 158 78 18 4 38 11 43 15 24 20 235 21 259 1z m1504 -512 c10
-15 11 -24 3 -32 -6 -6 -11 -19 -11 -29 0 -25 -38 -98 -50 -98 -6 0 -10 -4
-10 -9 0 -17 -62 -102 -79 -108 -9 -4 -34 -22 -56 -40 -58 -49 -63 -53 -73
-53 -5 0 -15 -6 -21 -14 -7 -8 -30 -17 -52 -21 -31 -5 -45 -3 -60 11 -31 28
-26 44 54 163 45 68 192 210 239 231 58 26 100 26 116 -1z"/>
<path d="M8635 8850 c-8 -13 25 -13 45 0 12 8 9 10 -12 10 -15 0 -30 -4 -33
-10z"/>
<path d="M9210 8850 c8 -5 22 -10 30 -10 8 0 27 -6 41 -14 14 -7 38 -16 54
-20 46 -12 131 -54 239 -119 120 -72 190 -121 372 -263 77 -60 203 -157 280
-216 76 -59 187 -144 245 -190 421 -329 524 -404 639 -465 81 -43 181 -82 270
-107 166 -46 194 -50 370 -50 150 0 186 3 253 22 100 27 211 80 275 131 54 43
129 150 155 221 19 50 24 156 7 130 -5 -8 -10 -23 -10 -33 0 -10 -17 -53 -37
-95 -51 -105 -150 -205 -253 -255 -126 -60 -178 -71 -330 -71 -135 1 -233 19
-338 60 -21 8 -46 19 -57 23 -53 21 -168 80 -240 123 -78 47 -162 109 -639
473 -619 472 -838 604 -1191 716 -64 20 -162 27 -135 9z"/>
<path d="M27610 8844 c-25 -7 -57 -13 -72 -13 -52 -2 -295 -91 -423 -155 -298
-150 -472 -269 -1190 -816 -323 -246 -578 -375 -815 -411 -101 -15 -269 -6
-346 19 -109 36 -185 82 -259 156 -72 73 -127 166 -140 239 -10 52 -25 56 -25
8 0 -73 58 -201 123 -272 115 -125 254 -185 485 -210 228 -24 486 29 737 152
101 49 176 101 412 282 297 229 895 678 993 745 119 83 319 186 430 220 41 13
96 31 122 39 34 11 96 15 220 15 115 1 160 3 133 9 -63 13 -334 8 -385 -7z"/>
<path d="M28052 8823 c6 -7 24 -13 40 -13 16 0 45 -7 65 -15 19 -8 43 -15 52
-15 9 0 29 -7 45 -15 15 -8 34 -15 40 -15 16 0 69 -28 136 -71 146 -95 276
-292 315 -481 27 -125 16 -297 -25 -406 -19 -51 -9 -45 -155 -88 -183 -54
-329 -171 -413 -331 -28 -53 -51 -84 -65 -89 -43 -14 -203 -5 -274 15 -231 64
-352 203 -369 429 -4 45 -11 82 -15 82 -14 0 -22 -68 -15 -128 24 -202 164
-369 368 -436 38 -13 143 -34 250 -51 20 -3 38 -11 41 -18 2 -7 2 -48 -1 -93
-18 -299 181 -550 482 -609 121 -23 231 -8 348 50 53 26 135 92 126 101 -3 2
-36 -14 -74 -36 -109 -64 -152 -75 -289 -75 -90 0 -134 5 -175 19 -69 23 -153
69 -208 114 -52 43 -124 150 -145 217 -34 110 -33 289 3 325 9 9 39 21 66 25
222 33 417 182 529 406 31 60 52 90 67 95 13 4 58 7 101 6 51 -2 76 1 72 8 -3
5 -39 10 -79 10 -88 0 -101 10 -92 72 15 106 18 271 6 331 -55 281 -198 471
-445 595 -122 60 -179 80 -267 91 -46 5 -55 4 -46 -6z m598 -1160 c0 -52 -80
-159 -172 -229 -110 -85 -279 -149 -294 -111 -11 30 53 127 136 205 61 57 151
112 230 138 89 31 100 30 100 -3z"/>
<path d="M8540 8820 c-11 -7 -7 -10 18 -10 17 0 32 5 32 10 0 13 -30 13 -50 0z"/>
<path d="M8465 8790 c-8 -13 25 -13 45 0 12 8 9 10 -12 10 -15 0 -30 -4 -33
-10z"/>
<path d="M8362 8736 c-168 -105 -277 -244 -337 -431 -33 -104 -43 -221 -31
-369 8 -106 8 -120 -7 -131 -10 -7 -71 -15 -144 -19 -159 -8 -280 -36 -443
-103 -141 -58 -325 -166 -439 -256 -74 -60 -274 -273 -331 -354 -151 -215
-266 -476 -343 -778 -9 -33 -20 -78 -26 -100 -49 -191 -76 -435 -76 -700 0
-251 12 -358 61 -561 43 -179 63 -238 131 -399 114 -269 250 -481 428 -666 82
-86 112 -109 141 -109 19 0 24 7 30 35 11 62 -3 91 -110 234 -115 152 -166
231 -225 348 -131 261 -213 528 -271 878 -24 143 -32 508 -15 690 17 179 87
503 133 615 6 14 20 50 32 80 100 252 274 516 464 705 150 149 310 256 499
334 126 52 185 69 304 86 197 29 225 20 279 -87 72 -142 126 -211 224 -285 79
-59 163 -99 261 -124 110 -28 119 -40 119 -169 0 -217 -102 -383 -293 -478
-111 -56 -201 -70 -336 -54 -102 12 -168 35 -249 85 -23 15 -44 27 -47 27 -14
0 64 -63 112 -91 91 -52 155 -69 267 -69 160 0 296 52 396 152 45 44 90 96 90
103 0 3 9 18 20 33 11 15 32 59 46 97 22 58 26 90 29 190 1 66 3 123 4 127 2
12 74 28 127 28 118 0 289 69 382 155 103 93 152 199 159 340 4 93 -10 77 -22
-25 -14 -120 -92 -243 -197 -312 -96 -63 -158 -80 -303 -85 -75 -3 -141 -1
-155 5 -16 6 -37 34 -60 77 -79 151 -203 265 -355 325 -11 5 -53 19 -93 31
-44 14 -81 32 -91 45 -10 12 -26 57 -36 99 -21 93 -17 283 10 385 48 187 198
387 343 455 17 9 32 18 32 20 0 14 -41 0 -88 -29z m-53 -1047 c132 -74 279
-228 284 -297 2 -26 0 -27 -44 -26 -95 1 -284 138 -369 268 -54 84 -50 101 21
93 29 -4 75 -20 108 -38z"/>
<path d="M15126 8655 c-22 -8 -52 -23 -67 -34 -16 -12 -31 -21 -35 -21 -8 0
-118 -92 -123 -103 -2 -5 -16 -17 -32 -26 -16 -10 -114 -100 -218 -199 -104
-100 -192 -182 -197 -182 -4 0 -62 -54 -130 -120 l-124 -120 -95 0 c-57 0 -95
-4 -95 -10 0 -6 28 -10 64 -10 36 0 68 -5 72 -11 7 -12 -60 -85 -117 -127 -20
-15 -67 -49 -103 -77 -69 -52 -136 -94 -196 -122 -19 -9 -57 -27 -84 -40 -27
-12 -71 -26 -98 -29 -27 -4 -51 -11 -54 -15 -3 -5 -53 -9 -112 -9 -130 0 -196
21 -259 83 -24 23 -43 44 -43 47 0 3 57 3 127 2 128 -4 268 10 307 30 46 24
56 28 69 28 14 0 168 78 177 90 3 3 12 10 20 14 57 27 74 42 209 176 123 122
177 205 188 289 3 23 10 41 14 41 15 0 10 78 -7 131 -17 52 -70 113 -107 125
-12 3 -28 12 -36 18 -19 15 -343 15 -362 0 -8 -7 -30 -15 -49 -19 -34 -8 -86
-27 -125 -48 -20 -10 -35 -14 -185 -41 -155 -29 -242 -62 -317 -122 -23 -19
-46 -34 -51 -34 -19 0 -130 -151 -138 -189 -4 -14 -12 -32 -18 -40 -6 -8 -11
-56 -11 -115 0 -89 3 -106 24 -141 30 -49 89 -114 116 -126 51 -24 111 -67
121 -88 18 -35 94 -109 134 -130 81 -42 140 -52 265 -48 132 4 243 25 296 55
19 10 46 22 62 26 83 20 319 191 457 330 l85 86 78 0 c58 0 79 -4 83 -14 3 -8
-20 -65 -50 -126 -31 -62 -56 -118 -56 -126 0 -8 -4 -23 -10 -34 -5 -11 -14
-29 -20 -40 -16 -32 -11 -92 10 -127 24 -40 64 -44 125 -13 64 32 275 213 275
236 0 7 14 23 31 36 17 13 64 53 103 91 52 48 80 67 99 67 22 0 27 -5 27 -25
0 -14 -4 -25 -10 -25 -5 0 -10 -6 -11 -12 0 -7 -15 -32 -32 -55 -96 -127 -130
-169 -143 -176 -8 -4 -14 -14 -14 -21 0 -7 -13 -25 -30 -41 -16 -16 -30 -35
-30 -42 0 -8 -7 -16 -15 -19 -8 -4 -15 -12 -15 -20 0 -23 99 -19 107 4 4 9 28
42 55 73 26 31 48 62 48 68 0 20 234 247 278 269 93 48 108 14 36 -82 -25 -33
-52 -65 -60 -69 -8 -4 -14 -14 -14 -21 0 -7 -13 -25 -30 -41 -16 -16 -30 -32
-30 -36 0 -5 -11 -21 -25 -36 -45 -50 -82 -98 -94 -120 -11 -22 -10 -23 32
-23 42 0 48 3 101 64 31 35 56 69 56 75 0 6 64 76 143 155 106 106 152 146
176 151 74 16 62 -36 -33 -149 -31 -36 -56 -69 -56 -74 0 -5 -9 -17 -20 -27
-34 -31 -72 -116 -65 -144 19 -75 139 -67 226 15 14 13 29 24 34 24 5 0 24 14
42 32 l33 32 0 -49 c0 -121 121 -142 240 -41 39 32 50 33 50 3 0 -43 27 -67
76 -67 24 0 52 4 62 9 9 5 28 14 42 20 38 16 60 32 122 84 31 26 60 47 65 47
5 0 29 21 53 46 111 113 259 243 285 250 27 7 28 6 21 -26 -3 -18 -23 -53 -44
-77 -20 -25 -42 -53 -47 -63 -6 -9 -43 -53 -83 -98 -40 -44 -72 -84 -72 -89 0
-5 -13 -22 -30 -38 -16 -16 -30 -32 -30 -37 0 -4 22 -8 49 -8 48 0 51 2 98 57
26 31 56 63 66 72 9 8 17 20 17 26 0 12 201 215 213 215 5 0 25 13 45 29 45
35 65 42 83 30 11 -7 12 -12 1 -26 -6 -10 -16 -27 -21 -38 -5 -11 -34 -48 -65
-82 -31 -33 -56 -64 -56 -68 0 -3 -13 -23 -29 -43 -36 -45 -53 -105 -41 -137
5 -13 23 -31 40 -40 29 -15 34 -14 92 6 33 13 71 32 84 43 32 29 81 66 88 66
3 0 6 -17 6 -37 0 -51 40 -93 89 -93 45 0 119 27 151 55 24 22 63 45 74 45 3
0 6 -13 6 -28 0 -42 37 -72 88 -72 48 0 102 30 169 93 22 22 46 36 52 33 5 -4
13 -23 17 -44 18 -104 121 -112 232 -19 36 30 52 34 52 14 0 -8 7 -28 16 -45
14 -29 20 -32 60 -32 24 0 52 4 62 9 9 5 28 14 42 20 14 7 35 18 47 25 71 40
303 250 303 273 0 22 -14 15 -60 -32 -24 -25 -48 -45 -53 -45 -4 0 -30 -21
-57 -47 -59 -58 -107 -95 -132 -105 -10 -4 -18 -12 -18 -18 0 -5 -6 -10 -14
-10 -7 0 -19 -7 -26 -15 -17 -20 -80 -20 -80 0 0 24 39 95 55 102 8 3 15 11
15 17 0 7 14 25 30 41 17 16 30 33 30 38 0 5 26 40 58 78 129 155 131 159 64
159 -41 0 -54 -4 -66 -22 l-16 -22 -16 22 c-13 18 -25 22 -74 22 -32 0 -62 -4
-65 -10 -3 -5 -14 -10 -24 -10 -10 0 -54 -18 -97 -40 -66 -34 -104 -66 -243
-203 -165 -161 -229 -208 -267 -193 -29 11 -11 70 40 130 25 29 46 57 46 62 0
5 11 20 25 34 37 38 85 97 85 104 0 9 80 112 109 142 12 12 21 25 21 31 0 5
11 20 25 33 14 13 25 28 25 32 0 8 45 67 108 143 41 50 82 106 82 113 0 5 11
19 25 32 38 36 32 50 -20 50 -25 0 -45 -5 -45 -10 0 -6 -24 -39 -52 -75 -29
-35 -73 -91 -98 -125 -25 -33 -68 -91 -97 -128 -29 -37 -60 -78 -70 -91 -43
-57 -72 -86 -73 -71 0 25 -54 50 -107 50 -27 0 -53 -4 -59 -8 -5 -5 -25 -15
-44 -22 -19 -8 -56 -31 -81 -52 -26 -21 -50 -38 -54 -38 -4 0 -70 -60 -146
-134 -76 -74 -152 -141 -169 -150 -16 -9 -43 -23 -60 -32 -16 -8 -34 -13 -40
-9 -16 10 -12 58 7 85 26 39 107 134 121 143 6 4 12 12 12 17 0 5 14 30 32 56
34 51 42 101 19 128 -21 25 -89 20 -136 -9 -22 -13 -49 -28 -60 -34 -12 -5
-27 -16 -34 -25 -22 -27 -31 -18 -31 28 0 35 -5 48 -22 60 -50 35 -93 11 -239
-131 -64 -62 -119 -113 -123 -113 -4 0 -43 -33 -87 -72 -44 -40 -85 -75 -92
-77 -7 -2 -28 -17 -48 -32 -36 -28 -92 -39 -103 -20 -11 18 42 96 182 266 28
36 52 67 52 71 0 4 16 24 35 45 19 22 35 44 35 49 0 6 -22 10 -49 10 -40 0
-53 -4 -65 -22 l-16 -22 -16 22 c-32 46 -167 21 -291 -54 -32 -19 -108 -84
-168 -144 -61 -61 -114 -110 -118 -110 -5 0 -39 -27 -78 -60 -49 -43 -78 -60
-98 -60 -15 0 -30 3 -34 6 -9 9 30 82 69 130 19 23 34 44 34 49 0 4 19 30 42
57 55 66 78 111 78 151 0 45 -15 57 -71 57 -51 0 -118 -32 -159 -75 -31 -33
-40 -32 -40 8 0 43 -26 67 -71 67 -36 0 -91 -23 -124 -53 -54 -48 -84 -67 -90
-57 -4 6 -1 17 5 25 10 12 9 22 -4 50 -15 31 -21 35 -55 35 -22 0 -44 -6 -51
-15 -7 -8 -18 -15 -24 -15 -6 0 -93 -78 -193 -173 -266 -253 -303 -276 -303
-191 0 33 47 135 105 229 14 22 35 57 48 79 44 77 93 152 162 252 22 32 47 68
55 80 37 54 91 131 109 154 12 14 21 29 21 33 0 5 18 30 40 56 22 26 40 50 40
54 0 4 7 15 15 25 42 48 75 90 75 96 0 4 18 29 40 57 50 63 60 97 35 116 -23
16 -39 16 -89 -2z m29 -46 c6 -9 -28 -49 -200 -233 -30 -32 -55 -61 -55 -64 0
-2 -16 -23 -36 -46 -40 -47 -167 -201 -189 -231 -8 -11 -27 -37 -42 -57 -16
-21 -43 -58 -62 -83 l-33 -45 -79 0 c-62 0 -79 3 -79 15 0 8 33 49 74 92 69
73 126 134 336 364 77 85 132 141 215 220 17 16 35 29 40 29 6 1 24 12 40 25
32 26 60 32 70 14z m-1191 -148 c3 -4 23 -11 44 -15 42 -6 132 -76 132 -102 0
-8 5 -14 10 -14 6 0 10 -30 10 -69 0 -39 -4 -73 -10 -76 -5 -3 -10 -13 -10
-22 0 -8 -19 -54 -42 -101 -37 -74 -59 -103 -151 -194 -59 -60 -112 -108 -117
-108 -5 0 -35 -17 -67 -38 -75 -50 -176 -98 -233 -112 -25 -6 -54 -15 -65 -19
-68 -28 -109 -34 -220 -33 -150 2 -196 16 -208 63 -11 40 -3 209 11 235 5 11
20 44 33 74 41 92 97 171 192 268 50 50 96 92 100 92 5 0 26 14 47 30 34 27
45 30 108 30 39 0 74 -4 77 -10 3 -5 20 -10 36 -10 16 0 55 -9 86 -20 54 -19
73 -19 73 1 0 16 -84 48 -149 56 -71 9 -88 26 -44 44 15 6 35 15 44 19 9 5 44
12 78 16 34 4 64 11 67 15 7 12 161 12 168 0z m-694 -218 c-101 -97 -167 -189
-232 -325 -27 -58 -49 -200 -42 -267 l7 -55 -49 29 c-55 31 -94 64 -94 78 0 5
-9 20 -20 34 -11 14 -20 40 -20 57 0 18 -5 37 -11 43 -8 8 -8 17 0 31 6 11 11
34 11 51 0 77 135 265 225 314 114 61 207 94 277 96 l37 1 -89 -87z m2900
-468 c10 -12 8 -23 -8 -57 -11 -24 -29 -52 -41 -62 -12 -11 -21 -24 -21 -30 0
-6 -44 -54 -97 -107 -150 -147 -211 -183 -243 -144 -12 15 -7 29 46 127 24 44
225 244 269 266 48 25 78 27 95 7z m1378 -1 c12 -8 22 -21 22 -27 0 -30 -65
-135 -112 -184 -53 -53 -183 -159 -225 -181 -32 -18 -92 -15 -100 4 -6 17 24
84 45 97 6 4 12 14 12 21 0 7 60 71 133 143 97 95 141 133 163 136 16 2 31 5
34 6 3 0 16 -6 28 -15z m651 -9 c3 -20 -20 -71 -54 -114 -11 -14 -77 -83 -147
-153 -100 -99 -135 -128 -162 -134 -19 -3 -40 -3 -46 1 -18 11 -5 72 25 110
14 19 25 38 25 44 0 6 53 64 118 129 117 118 155 143 212 139 16 -1 26 -9 29
-22z"/>
<path d="M12431 8130 c0 -14 4 -34 9 -45 7 -17 9 -16 9 10 0 17 -4 37 -9 45
-8 12 -10 10 -9 -10z"/>
<path d="M23032 7988 c-27 -27 -8 -88 28 -88 23 0 60 42 60 67 0 32 -62 47
-88 21z"/>
<path d="M29055 7710 c3 -5 16 -10 28 -10 18 0 19 2 7 10 -20 13 -43 13 -35 0z"/>
<path d="M29170 7682 c0 -4 22 -15 50 -25 431 -153 811 -540 1015 -1032 21
-49 43 -103 50 -120 39 -93 87 -282 106 -420 25 -183 28 -230 28 -440 0 -456
-45 -709 -204 -1134 -27 -74 -122 -257 -187 -360 -106 -170 -299 -401 -335
-401 -17 0 -28 30 -43 109 -46 257 -205 529 -412 705 -63 54 -74 77 -89 181
-5 38 -14 74 -19 79 -6 6 -10 19 -10 30 0 11 -6 27 -14 35 -7 9 -18 30 -24 46
-8 24 -11 26 -11 8 -1 -12 5 -34 13 -50 33 -66 54 -196 37 -223 -9 -12 -23
-10 -103 17 -257 87 -473 82 -698 -15 -105 -45 -198 -149 -235 -261 -24 -73
-23 -203 1 -271 37 -102 140 -201 254 -243 69 -26 242 -23 323 4 87 29 149 62
215 113 83 63 174 166 147 166 -2 0 -26 -23 -52 -51 -110 -118 -269 -195 -428
-206 -185 -13 -348 69 -407 205 -30 71 -23 187 16 267 56 114 177 203 350 257
62 20 93 22 241 22 180 0 242 -12 343 -63 56 -29 57 -30 36 -198 -3 -25 -1
-43 4 -43 6 0 13 24 17 53 7 60 33 127 49 127 11 0 80 -52 107 -80 149 -158
236 -330 304 -600 24 -99 26 -419 2 -520 -94 -393 -257 -650 -557 -879 -113
-86 -329 -207 -470 -264 -96 -38 -430 -117 -540 -127 -52 -5 -124 -14 -160
-19 -36 -6 -185 -11 -332 -11 l-268 0 3 -22 c3 -36 -45 -54 -102 -39 -54 14
-71 27 -71 52 0 25 -24 35 -105 44 -38 3 -88 11 -110 15 -22 5 -100 18 -173
30 -113 17 -287 58 -577 135 -117 31 -387 107 -445 127 -19 6 -48 15 -65 19
-25 6 -187 53 -395 114 -130 38 -415 115 -484 130 -83 18 -243 26 -248 12 -2
-4 89 -39 202 -77 113 -38 248 -85 300 -103 52 -19 124 -44 160 -56 36 -12 74
-26 85 -31 11 -4 63 -22 115 -38 52 -16 181 -57 285 -90 105 -33 258 -81 340
-107 83 -26 184 -57 225 -70 101 -32 298 -77 475 -109 176 -32 490 -56 720
-56 338 1 595 31 860 100 44 12 94 25 110 29 147 38 428 166 566 257 267 177
464 399 588 667 75 161 108 285 137 515 6 49 11 58 68 110 142 131 287 282
343 358 180 239 325 526 397 789 9 33 21 76 27 95 63 226 86 618 54 905 -21
185 -69 429 -113 566 -38 118 -52 158 -60 179 -5 14 -17 43 -25 65 -69 183
-160 351 -271 498 -55 73 -191 217 -281 296 -55 48 -207 150 -298 199 -70 38
-203 94 -276 116 -60 18 -71 19 -71 8z"/>
<path d="M25357 6426 c-51 -19 -111 -62 -140 -100 -48 -63 -57 -91 -57 -181 0
-99 15 -138 77 -197 90 -86 208 -92 314 -16 73 52 64 -137 -14 -285 -47 -90
-139 -175 -279 -261 -32 -19 -35 -37 -12 -61 20 -20 48 -12 164 44 142 68 293
222 358 364 49 105 66 269 41 389 -24 116 -124 249 -218 291 -59 26 -181 33
-234 13z"/>
<path d="M11595 6424 c-411 -61 -653 -315 -632 -662 13 -206 88 -335 279 -475
101 -75 222 -138 452 -236 392 -168 470 -224 511 -364 41 -142 -44 -267 -220
-323 -49 -15 -89 -19 -210 -18 -140 1 -156 3 -237 31 -173 60 -315 166 -408
305 -37 56 -102 211 -115 274 -4 21 -14 34 -27 37 -49 13 -48 21 -48 -379 l0
-374 29 0 c23 0 34 8 51 35 28 45 72 82 109 90 21 4 75 -9 198 -49 92 -31 182
-60 198 -65 142 -45 444 -59 604 -27 384 75 592 306 591 655 -1 229 -91 415
-265 548 -76 58 -250 148 -415 213 -287 115 -428 181 -490 230 -44 35 -90 119
-90 165 0 58 29 122 75 164 90 83 197 116 355 108 190 -9 360 -80 479 -201 94
-95 135 -160 166 -261 27 -90 33 -105 50 -111 8 -4 22 -1 30 6 13 11 15 58 13
334 l-3 321 -23 3 c-28 4 -52 -14 -52 -40 0 -11 -13 -33 -29 -49 -37 -37 -75
-38 -167 -4 -285 106 -334 116 -559 120 -93 2 -183 1 -200 -1z"/>
<path d="M16260 6424 c-14 -2 -56 -9 -95 -15 -257 -42 -452 -137 -616 -299
-192 -190 -283 -385 -310 -665 -36 -372 75 -692 324 -932 164 -158 350 -245
617 -289 138 -23 405 -23 550 -1 497 78 823 378 927 852 24 113 24 389 0 500
-34 151 -70 239 -144 355 -163 255 -407 410 -753 477 -71 14 -444 27 -500 17z
m334 -156 c145 -52 252 -235 301 -510 23 -129 34 -418 24 -633 -19 -421 -116
-659 -307 -752 -50 -24 -69 -27 -152 -28 -84 0 -102 3 -151 28 -165 81 -274
313 -314 670 -32 290 -12 616 53 847 23 85 96 230 142 283 102 117 248 151
404 95z"/>
<path d="M12674 6385 c-14 -36 3 -45 83 -45 132 -1 186 -46 198 -163 3 -34 5
-442 3 -907 -3 -784 -4 -848 -21 -886 -24 -55 -61 -74 -173 -87 -88 -11 -94
-13 -94 -34 l0 -23 608 2 c599 3 607 3 607 23 0 17 -9 21 -65 27 -155 17 -183
41 -200 169 -13 102 -13 765 0 790 10 18 25 19 348 19 250 0 341 -3 350 -12
16 -16 17 -750 1 -832 -17 -81 -47 -110 -130 -125 -36 -6 -78 -11 -92 -11 -22
0 -27 -5 -27 -25 l0 -25 604 0 c496 0 605 2 609 13 9 25 -8 34 -78 41 -148 15
-187 37 -205 120 -8 36 -10 318 -8 936 3 992 -2 927 78 968 34 17 61 22 121
22 80 0 105 12 93 44 -6 15 -62 16 -611 16 l-604 0 3 -27 c3 -27 5 -28 78 -34
41 -3 89 -12 105 -21 67 -36 74 -84 75 -515 0 -316 -2 -364 -16 -377 -13 -14
-59 -16 -343 -16 -305 0 -329 1 -344 18 -15 17 -17 55 -17 343 0 179 5 363 11
409 15 125 44 150 184 159 77 6 80 7 80 31 l0 25 -603 3 c-529 2 -603 0 -608
-13z"/>
<path d="M17624 6385 c-14 -35 3 -45 75 -45 74 0 143 -23 172 -56 45 -53 44
-40 44 -969 0 -819 -1 -883 -18 -917 -25 -54 -78 -85 -167 -99 -100 -15 -102
-16 -98 -36 3 -17 41 -18 621 -21 l617 -2 0 23 c0 22 -5 25 -62 30 -35 4 -81
12 -103 18 -53 15 -110 75 -118 125 -4 22 -7 204 -7 406 0 345 1 368 18 377
39 21 64 -10 201 -239 74 -124 202 -340 285 -480 l152 -255 404 -3 c231 -1
408 2 413 7 18 18 -12 47 -62 60 -71 18 -129 74 -201 192 -33 55 -60 102 -60
104 0 3 -17 33 -38 67 -21 35 -83 140 -137 233 -54 94 -120 207 -147 253 -26
46 -48 91 -48 101 0 12 18 25 58 41 161 65 268 178 323 339 30 85 27 283 -5
380 -41 125 -122 220 -241 283 -69 37 -131 56 -246 79 -93 18 -151 19 -860 19
-666 0 -760 -2 -765 -15z m1273 -134 c61 -27 131 -98 166 -167 67 -135 69
-384 5 -530 -22 -52 -98 -138 -141 -160 -78 -40 -281 -68 -325 -45 l-22 12 0
453 c0 249 3 456 8 460 4 4 63 6 132 4 104 -3 134 -8 177 -27z"/>
<path d="M19917 6393 c-4 -3 -7 -127 -7 -275 0 -239 2 -269 16 -275 31 -12 47
12 65 100 52 259 189 357 498 357 46 0 84 -5 94 -13 16 -11 17 -71 15 -932
l-3 -920 -22 -41 c-31 -58 -65 -76 -173 -95 -82 -13 -95 -18 -95 -35 0 -19 16
-19 623 -22 l622 -2 0 24 c0 27 -7 29 -110 41 -66 8 -116 30 -136 60 -44 67
-44 72 -44 1017 0 1034 -15 918 117 918 188 -1 294 -33 373 -114 74 -75 116
-165 127 -274 5 -55 9 -63 30 -68 51 -13 53 -2 53 271 0 140 -3 260 -6 269 -6
14 -105 16 -1018 16 -557 0 -1016 -3 -1019 -7z"/>
<path d="M22522 6373 c3 -24 8 -28 38 -31 78 -6 128 -32 181 -90 87 -98 80
-12 77 -940 -3 -883 -1 -841 -51 -915 -11 -15 -36 -39 -57 -52 -35 -22 -61
-30 -152 -50 -22 -4 -28 -11 -28 -30 l0 -25 370 0 c335 0 371 2 377 16 9 25
-19 41 -85 49 -65 8 -136 36 -169 67 -13 12 -32 45 -43 75 -19 52 -20 77 -20
783 0 660 2 730 16 730 17 0 12 6 224 -245 84 -99 165 -195 181 -214 15 -18
119 -141 231 -274 246 -292 433 -513 676 -800 105 -124 193 -219 205 -222 12
-3 67 -5 122 -3 l100 3 5 985 5 985 23 47 c13 27 37 57 53 68 30 22 104 47
154 52 24 2 30 8 30 28 l0 25 -350 0 -350 0 0 -25 c0 -23 4 -25 65 -31 106
-10 166 -43 203 -112 22 -42 22 -45 25 -592 1 -334 -2 -556 -7 -565 -13 -20
-27 -6 -174 170 -104 124 -243 288 -321 380 -12 14 -131 156 -266 315 -134
160 -278 329 -318 378 l-75 87 -449 0 -449 0 3 -27z"/>
<path d="M7955 5270 c-3 -5 1 -10 9 -10 8 0 18 5 21 10 3 6 -1 10 -9 10 -8 0
-18 -4 -21 -10z"/>
<path d="M7915 5240 c-3 -5 -2 -10 4 -10 5 0 13 5 16 10 3 6 2 10 -4 10 -5 0
-13 -4 -16 -10z"/>
<path d="M7865 5210 c-3 -5 1 -10 9 -10 9 0 16 5 16 10 0 6 -4 10 -9 10 -6 0
-13 -4 -16 -10z"/>
<path d="M7830 5179 c0 -5 5 -7 10 -4 6 3 10 8 10 11 0 2 -4 4 -10 4 -5 0 -10
-5 -10 -11z"/>
<path d="M7769 5119 c-19 -22 -38 -46 -44 -53 -47 -56 -98 -189 -110 -289 -9
-70 -25 -100 -75 -142 -25 -21 -65 -54 -89 -74 -56 -47 -168 -197 -214 -286
-72 -141 -95 -206 -135 -380 -17 -74 -20 -80 -45 -83 -18 -2 -32 -13 -43 -34
-27 -52 -21 -82 24 -127 44 -43 47 -56 56 -176 13 -190 110 -447 248 -655 94
-140 284 -330 423 -421 212 -140 315 -191 516 -259 342 -115 649 -161 1094
-163 352 -2 500 13 842 84 133 27 280 68 448 126 105 36 208 71 230 78 22 7
139 48 260 90 223 77 365 123 465 151 30 9 78 22 105 30 28 8 138 37 245 64
237 61 232 59 200 72 -31 12 -232 2 -355 -18 -151 -25 -335 -69 -540 -131 -27
-8 -68 -19 -90 -25 -22 -7 -186 -61 -365 -121 -396 -133 -513 -164 -795 -211
-240 -40 -610 -76 -775 -76 -265 0 -683 55 -890 116 -456 136 -755 338 -984
667 -87 123 -173 325 -215 502 -26 109 -35 260 -23 399 22 259 104 477 247
661 66 84 99 117 153 155 34 23 34 23 53 3 14 -13 22 -39 26 -79 10 -103 24
-97 22 11 -1 55 -1 106 0 113 1 15 84 54 166 77 92 27 334 25 438 -3 179 -49
300 -136 370 -267 28 -54 31 -69 31 -145 0 -72 -4 -93 -26 -136 -50 -95 -144
-157 -281 -184 -55 -11 -82 -11 -145 -1 -73 11 -98 19 -194 59 -83 34 -250
173 -273 227 -8 19 -8 19 -13 1 -2 -11 3 -23 12 -28 9 -5 16 -15 16 -22 0 -22
143 -152 215 -194 119 -69 182 -86 320 -86 118 0 121 0 195 37 85 42 138 88
174 150 72 124 73 293 3 424 -25 48 -108 127 -171 162 -185 106 -484 121 -729
36 -101 -35 -111 -31 -104 40 7 67 21 111 60 195 33 67 95 160 109 160 4 0 8
5 8 10 0 20 -18 9 -51 -31z"/>
<path d="M29010 5030 c0 -5 5 -10 11 -10 5 0 7 5 4 10 -3 6 -8 10 -11 10 -2 0
-4 -4 -4 -10z"/>
<path d="M29040 4993 c0 -4 5 -15 10 -23 8 -13 10 -13 10 2 0 9 -4 20 -10 23
-5 3 -10 3 -10 -2z"/>
<path d="M7651 4398 c-1 -20 4 -40 9 -43 12 -7 12 32 0 60 -7 16 -9 13 -9 -17z"/>
<path d="M29108 4354 c-5 -4 -8 -19 -8 -33 1 -23 2 -24 11 -8 11 19 9 53 -3
41z"/>
<path d="M7680 4316 c0 -8 5 -18 10 -21 6 -3 10 1 10 9 0 8 -4 18 -10 21 -5 3
-10 -1 -10 -9z"/>
<path d="M29073 4270 c-6 -14 -8 -29 -5 -34 7 -13 24 22 19 42 -3 14 -6 12
-14 -8z"/>
<path d="M29047 4224 c-4 -4 -7 -14 -7 -23 0 -11 3 -12 11 -4 6 6 10 16 7 23
-2 6 -7 8 -11 4z"/>
<path d="M13490 3754 c-14 -2 -56 -9 -95 -15 -271 -44 -476 -202 -551 -426
-22 -65 -26 -96 -26 -188 -1 -178 45 -295 162 -414 102 -104 302 -226 510
-311 30 -12 71 -29 90 -37 19 -8 44 -18 55 -23 11 -4 81 -37 156 -74 194 -95
266 -174 277 -303 10 -123 -78 -225 -238 -274 -64 -19 -87 -21 -218 -16 -123
4 -159 9 -222 30 -130 45 -226 104 -317 198 -100 104 -172 240 -207 392 -6 25
-11 28 -39 25 l-32 -3 -3 -364 c-2 -260 1 -368 9 -377 21 -25 47 -15 74 29 64
100 104 106 301 39 284 -95 351 -107 574 -107 217 0 351 28 494 102 91 48 221
175 259 253 57 117 62 144 62 315 0 138 -3 168 -21 221 -80 226 -222 356 -539
493 -27 12 -59 26 -70 31 -11 5 -78 32 -150 60 -71 28 -181 77 -244 108 -139
68 -192 118 -216 197 -14 50 -14 60 0 109 29 101 122 170 268 200 95 20 132
20 243 1 174 -30 289 -91 406 -213 78 -81 140 -188 154 -263 9 -47 32 -89 48
-89 34 0 36 24 34 346 l-3 319 -25 0 c-19 0 -29 -9 -42 -35 -9 -19 -27 -45
-40 -58 -32 -32 -95 -26 -223 22 -135 50 -177 63 -270 81 -77 16 -333 28 -385
19z"/>
<path d="M14581 3716 c-18 -22 -2 -46 31 -46 52 0 138 -31 174 -62 31 -28 114
-177 114 -206 0 -7 4 -20 9 -30 5 -9 30 -75 56 -147 25 -71 52 -146 60 -165 8
-19 34 -93 60 -165 25 -71 52 -146 60 -165 7 -19 35 -93 61 -165 77 -216 155
-428 169 -465 7 -19 34 -93 60 -165 25 -71 52 -146 60 -165 8 -19 28 -75 46
-125 17 -49 36 -96 42 -103 7 -9 33 -12 85 -10 l75 3 28 70 c15 39 73 194 129
345 56 151 115 311 132 355 16 44 36 97 44 118 8 20 21 55 29 77 8 22 22 58
30 80 8 22 22 59 31 83 36 95 44 116 74 202 40 113 43 120 64 120 17 0 20 -9
321 -900 138 -407 180 -530 188 -542 5 -9 34 -13 81 -13 58 0 76 4 89 18 10
10 17 23 17 29 0 6 9 32 21 59 11 27 24 58 29 69 4 11 34 88 66 170 53 139 93
242 211 545 24 63 60 156 79 205 20 50 41 106 49 125 7 19 35 89 60 155 119
303 138 352 150 380 7 17 30 77 51 135 68 185 118 235 234 235 82 0 128 -26
156 -87 18 -41 19 -78 19 -933 l0 -890 -23 -37 c-31 -51 -96 -80 -189 -86 -78
-5 -88 -10 -78 -42 6 -20 18 -20 1946 -20 l1939 0 10 26 c6 14 17 67 25 118
24 155 43 266 64 390 22 122 19 141 -15 134 -21 -4 -33 -27 -63 -118 -55 -164
-163 -296 -296 -360 -108 -53 -216 -70 -420 -69 -179 1 -228 11 -259 52 -21
28 -21 37 -21 440 l0 412 80 3 c98 4 148 -14 207 -71 57 -56 101 -151 123
-267 9 -52 19 -101 21 -108 5 -18 51 -15 58 4 9 24 7 1017 -3 1032 -4 8 -19
12 -32 10 -18 -2 -25 -10 -27 -33 -7 -76 -51 -225 -81 -275 -28 -47 -86 -102
-134 -127 -59 -29 -178 -43 -202 -23 -13 11 -15 69 -15 436 0 408 1 424 19
434 31 16 416 13 500 -5 150 -31 247 -106 310 -239 22 -44 42 -97 46 -116 19
-100 25 -111 53 -108 l27 3 0 295 0 295 -2126 3 c-1882 2 -2128 0 -2139 -13
-15 -18 2 -45 28 -45 32 0 94 -25 119 -47 22 -22 25 -30 21 -76 -4 -42 -64
-215 -108 -312 -5 -11 -30 -74 -55 -140 -26 -66 -66 -169 -90 -230 -76 -193
-132 -339 -139 -362 -8 -25 -32 -37 -43 -20 -8 12 -23 55 -118 332 -30 88 -82
239 -115 335 -128 371 -131 380 -128 422 4 50 29 72 106 91 64 16 80 30 62 52
-11 13 -74 15 -544 13 l-531 -3 0 -24 c0 -21 8 -26 69 -43 84 -23 118 -46 152
-104 31 -53 104 -266 104 -304 0 -15 -25 -94 -56 -176 -64 -170 -111 -298
-124 -334 -5 -14 -18 -50 -30 -80 -11 -30 -30 -82 -42 -115 -36 -104 -54 -107
-88 -12 -12 34 -35 96 -50 137 -16 41 -43 116 -61 165 -17 50 -44 124 -60 165
-15 41 -55 152 -89 245 -34 94 -66 178 -71 188 -6 10 -12 46 -16 81 -5 59 -4
65 23 94 17 19 51 40 84 50 56 19 76 46 48 63 -7 5 -257 9 -554 9 -447 0 -544
-2 -553 -14z m5361 -62 c80 -23 112 -60 128 -151 8 -49 11 -295 8 -903 l-3
-835 -22 -45 c-26 -52 -48 -68 -118 -86 -57 -16 -104 -18 -124 -5 -15 10 -13
26 54 416 26 154 27 172 10 178 -22 9 -43 -2 -50 -26 -23 -79 -82 -214 -116
-263 -136 -196 -306 -260 -664 -252 -268 6 -255 -19 -255 497 0 209 3 386 6
395 5 13 23 16 93 16 77 0 91 -3 138 -30 95 -55 160 -168 184 -321 14 -91 24
-111 52 -107 l22 3 3 528 2 527 -25 0 c-31 0 -40 -18 -54 -108 -26 -168 -94
-277 -210 -336 -44 -23 -175 -34 -196 -16 -13 11 -15 68 -15 431 0 366 2 420
16 433 13 14 48 16 224 16 228 0 312 -11 404 -55 121 -57 222 -206 242 -357 7
-53 22 -71 56 -66 l23 3 3 255 c1 140 4 261 7 268 6 18 107 15 177 -4z"/>
<path d="M21933 3723 c-10 -3 -13 -68 -13 -274 l0 -269 24 -6 c32 -8 46 1 46
29 0 40 37 162 64 218 74 148 190 202 422 197 l129 -3 3 -915 c2 -825 1 -919
-14 -958 -29 -79 -80 -108 -209 -121 -56 -6 -60 -8 -60 -31 l0 -25 620 0 620
0 0 25 c0 21 -5 25 -35 28 -66 6 -162 32 -190 52 -62 44 -60 13 -58 1025 l3
920 155 0 c153 0 156 -1 222 -32 122 -57 190 -153 224 -314 9 -46 21 -88 25
-93 4 -5 19 -6 33 -2 l26 6 0 263 c0 191 -3 266 -12 275 -9 9 -247 12 -1012
11 -551 0 -1007 -3 -1013 -6z"/>
<path d="M17825 1041 c-292 -66 -427 -148 -730 -441 -224 -217 -340 -302 -518
-377 -240 -102 -432 -118 -625 -53 -52 17 -96 29 -99 26 -3 -3 6 -8 21 -12 14
-3 26 -10 26 -14 0 -5 10 -11 23 -15 12 -3 38 -12 57 -19 84 -32 115 -37 227
-37 156 0 313 32 455 93 135 57 261 152 473 358 136 132 310 280 329 280 3 0
34 17 69 39 88 53 279 127 368 141 108 18 256 24 287 12 43 -17 102 -24 102
-13 0 6 -17 13 -37 16 -21 4 -52 13 -70 21 -46 21 -256 17 -358 -5z"/>
<path d="M18595 1053 c-11 -3 -24 -9 -30 -13 -5 -4 -27 -10 -47 -14 -21 -4
-38 -11 -38 -16 0 -10 66 -2 92 11 54 28 344 -8 452 -55 17 -7 55 -23 84 -35
29 -12 68 -31 85 -41 18 -11 53 -31 78 -44 75 -41 194 -140 359 -301 293 -285
448 -376 740 -432 86 -16 301 -19 329 -3 11 5 28 10 38 10 10 0 30 6 44 14 14
7 37 16 52 20 27 6 38 26 14 26 -7 0 -39 -9 -71 -20 -196 -69 -500 -9 -765
152 -100 61 -191 137 -356 298 -229 223 -415 351 -576 395 -150 41 -237 55
-349 54 -63 -1 -124 -4 -135 -6z"/>
<path d="M18319 981 c24 -18 24 -20 8 -44 -9 -14 -26 -28 -37 -32 -11 -3 -20
-13 -20 -21 0 -11 14 -4 42 20 44 38 92 48 116 24 9 -9 12 -9 12 0 0 7 -4 12
-10 12 -18 0 -10 27 13 43 20 15 18 15 -25 1 -42 -14 -49 -14 -77 0 -41 21
-51 20 -22 -3z"/>
<path d="M18450 906 c0 -2 12 -12 28 -21 l27 -18 -19 21 c-17 20 -36 29 -36
18z"/>
<path d="M16055 863 c-119 -31 -275 -126 -307 -187 -8 -14 4 -8 33 17 71 61
140 102 204 121 33 10 74 22 90 27 17 5 52 12 78 15 26 4 47 11 47 15 0 14
-78 9 -145 -8z"/>
<path d="M20565 870 c-3 -6 4 -10 17 -10 43 0 213 -47 268 -73 30 -15 79 -49
109 -77 29 -28 56 -48 60 -44 13 13 -108 111 -180 146 -110 53 -258 85 -274
58z"/>
<path d="M18251 854 c0 -11 3 -14 6 -6 3 7 2 16 -1 19 -3 4 -6 -2 -5 -13z"/>
<path d="M17830 720 c0 -5 4 -10 9 -10 6 0 13 5 16 10 3 6 -1 10 -9 10 -9 0
-16 -4 -16 -10z"/>
<path d="M18190 670 c0 -35 3 -60 7 -57 7 8 5 108 -3 116 -2 2 -4 -24 -4 -59z"/>
<path d="M18900 726 c0 -2 7 -6 15 -10 8 -3 15 -1 15 4 0 6 -7 10 -15 10 -8 0
-15 -2 -15 -4z"/>
<path d="M18560 658 c0 -25 3 -29 10 -18 13 20 13 50 0 50 -5 0 -10 -15 -10
-32z"/>
<path d="M21031 634 c0 -11 3 -14 6 -6 3 7 2 16 -1 19 -3 4 -6 -2 -5 -13z"/>
<path d="M15697 604 c-4 -4 -7 -14 -7 -23 0 -11 3 -12 11 -4 6 6 10 16 7 23
-2 6 -7 8 -11 4z"/>
<path d="M18210 578 c0 -16 5 -28 10 -28 13 0 13 20 0 40 -8 12 -10 9 -10 -12z"/>
<path d="M18540 579 c0 -11 5 -17 10 -14 6 3 10 13 10 21 0 8 -4 14 -10 14 -5
0 -10 -9 -10 -21z"/>
<path d="M21060 581 c0 -11 5 -23 10 -26 6 -3 10 3 10 14 0 11 -4 23 -10 26
-5 3 -10 -3 -10 -14z"/>
<path d="M15664 506 c-3 -19 -1 -43 5 -53 8 -14 10 -8 11 35 0 60 -6 67 -16
18z"/>
<path d="M18511 524 c0 -11 3 -14 6 -6 3 7 2 16 -1 19 -3 4 -6 -2 -5 -13z"/>
<path d="M18240 525 c0 -13 37 -63 68 -91 30 -27 33 -34 23 -53 -6 -11 -24
-23 -39 -27 -15 -3 -36 -9 -47 -14 -23 -10 -140 -36 -205 -46 -38 -6 -42 -8
-23 -15 12 -4 48 -4 80 2 32 5 80 14 106 18 27 5 53 13 60 20 6 6 19 11 28 11
9 0 22 7 29 15 8 9 30 15 60 15 30 0 52 -6 60 -15 7 -8 20 -15 29 -15 9 0 25
-6 36 -14 11 -7 38 -16 60 -19 22 -3 66 -10 98 -16 33 -6 67 -6 80 -2 18 7 14
10 -28 16 -27 3 -63 10 -80 15 -16 5 -49 12 -72 15 -24 4 -45 10 -48 15 -3 4
-19 10 -37 14 -18 3 -39 15 -46 26 -11 18 -7 25 28 60 35 35 50 60 36 60 -3 0
-26 -20 -53 -45 -26 -25 -54 -45 -63 -45 -16 0 -120 96 -120 111 0 5 -4 9 -10
9 -5 0 -10 -2 -10 -5z"/>
<path d="M21092 470 c0 -14 2 -19 5 -12 2 6 2 18 0 25 -3 6 -5 1 -5 -13z"/>
<path d="M16375 430 c-3 -5 3 -10 14 -10 12 0 21 5 21 10 0 6 -6 10 -14 10 -8
0 -18 -4 -21 -10z"/>
<path d="M20355 430 c3 -5 15 -10 26 -10 11 0 17 5 14 10 -3 6 -15 10 -26 10
-11 0 -17 -4 -14 -10z"/>
<path d="M21031 314 c0 -11 3 -14 6 -6 3 7 2 16 -1 19 -3 4 -6 -2 -5 -13z"/>
<path d="M15745 280 c3 -5 8 -10 11 -10 2 0 4 5 4 10 0 6 -5 10 -11 10 -5 0
-7 -4 -4 -10z"/>
<path d="M21000 280 c0 -5 5 -10 10 -10 6 0 10 5 10 10 0 6 -4 10 -10 10 -5 0
-10 -4 -10 -10z"/>
<path d="M15788 240 c12 -11 26 -20 33 -20 6 0 0 9 -14 20 -14 11 -29 20 -33
20 -4 0 2 -9 14 -20z"/>
<path d="M20970 250 c0 -5 5 -10 10 -10 6 0 10 5 10 10 0 6 -4 10 -10 10 -5 0
-10 -4 -10 -10z"/>
<path d="M20940 230 c-8 -5 -12 -11 -9 -14 2 -3 11 -1 19 4 8 5 12 11 9 14 -2
3 -11 1 -19 -4z"/>
<path d="M20875 190 c-8 -13 5 -13 25 0 13 8 13 10 -2 10 -9 0 -20 -4 -23 -10z"/>
</g>
</svg>
